<svg xmlns="http://www.w3.org/2000/svg" viewBox="0 0 391.8451 544.3579"><defs><style>.cls-1{fill:#231f20;}.cls-2{fill-rule:evenodd;}</style></defs><g id="katman_2" data-name="katman 2"><g id="katman_1-2" data-name="katman 1"><path d="M6.08,449.16V481.488c-.34.7829-.69,1.5523-1.0229,2.3455l-.8267,1.9658H202.2882c.0141.0158.0312.0283.0457.0435.0345.0363.0714.0692.1083.103a2.143,2.143,0,0,0,.1793.148c.0436.0319.0878.0615.1338.09a2.1213,2.1213,0,0,0,.1979.1074c.049.0236.0972.0474.1481.0673a2.1254,2.1254,0,0,0,.2374.0737c.0454.0118.0889.027.1354.0357a2.1028,2.1028,0,0,0,.3963.04l.001,0,.0009,0h8.1l.5127-2.6416L234.77,416.711a16.0709,16.0709,0,0,0,6.7177-4.5045c2.9814-3.4628,4.2412-8.3662,3.7431-14.5712l-.0937-1.1739-1.0449-.5429a13.2407,13.2407,0,0,0-2.13-.88l.4771-1.4378c2.6387-.1787,4.5332.3994,5.876,1.8037,3.84,4.0176,3.9629,15.5674.3662,34.33L231.426,483.2915a2.1236,2.1236,0,0,0,4.025,1.3548,79.71,79.71,0,0,0,14.8823-.4827c9.874-2.8633,11.0195-1.0606,11.8525.2549a2.0523,2.0523,0,0,0,1.8945,1.247h.2832v-.2832c0-1.5947,8.5274-19.6963,9.6983-22.083.4795-.9785,1.2891-2.3047,2.1465-3.709a43.1,43.1,0,0,0,3.1773-5.7951,3.8906,3.8906,0,0,0,.7895-.1834c1.5058-.5361,3.3-2.2353,3.3-7.289,0-.49.0683-1.5557.1338-2.586.2627-4.123.31-4.8652-.5381-5.7021l-.7129-.69-.9678.0752-3.64.8789a2.126,2.126,0,1,0,1.0312,4.125l.6582-.165c-.0254.4316-.0517.8564-.0742,1.207-.0762,1.1973-.1426,2.2315-.1426,2.8575a7.217,7.217,0,0,1-.4931,3.1709,6.5131,6.5131,0,0,1-1.8829-1.7422c-3.429-4.2048-20.91-3.2683-28.7177-2.4383l4.6386-14.3977.0645-.2509c.06-.3148.11-.6078.1689-.9184.0563-.0223.1093-.0437.17-.0671l-.1647.04c3.863-20.5182,3.3636-32.04-1.6183-37.2515-2.5147-2.63-6.1661-3.6182-10.8448-2.9326l-1.2978.1894-1.6127,4.86a12.5254,12.5254,0,0,0-7.3043,3.7487l-.3691.3565L224.21,415.5151q-.0308.0792-.0556.1612l-.936,2.7395c-19.2039-8.4353-33.6377-20.2311-44.551-34.3592a24.5373,24.5373,0,0,1,14.63-5.2778,2.126,2.126,0,1,0-.2256-4.2461,28.9785,28.9785,0,0,0-16.9346,6.12,127.1912,127.1912,0,0,1-11.3429-19.374,75.8619,75.8619,0,0,1,24.1818-5.32l1.9688-.1006a2.1258,2.1258,0,0,0-.2168-4.2461l-1.938.0986a78.89,78.89,0,0,0-25.7693,5.6985,171.9748,171.9748,0,0,1-7.7024-21.3845c6.5214-.547,17.1021-.4424,21.9492-.395,2.9683.0283,5.3116.0518,6.66.0088a2.1261,2.1261,0,0,0-.14-4.25c-1.2554.04-3.6753.0176-6.4776-.0108-10.6216-.1043-18.1726-.0349-23.1521.5q-.322-1.2-.6325-2.4069a2.0929,2.0929,0,0,0,.2265.0227h.0283l33.6768-.44a2.1264,2.1264,0,0,0,2.0981-2.1533,2.1531,2.1531,0,0,0-2.1538-2.0986l-33.6767.44a2.1138,2.1138,0,0,0-1.15.36c-4.1582-17.5058-6.4427-36.032-7.9623-54.6661a299.81,299.81,0,0,0,52.0321,11.862c.0072.0433.0064.086.0163.1294.22.956.2427,1.0561,9.479,7.5981,1.8838,1.333,3.4053,2.5293,4.7471,3.585,4.0683,3.1992,6.6377,4.9775,10.7881,4.9775a31.1022,31.1022,0,0,0,8.7138-1.6494,2.1255,2.1255,0,0,0-1.2265-4.07c-8.9239,2.6894-10.2139,1.6728-15.6465-2.6-1.3818-1.0869-2.9482-2.3194-4.92-3.7134-.7854-.5562-2.8213-2.0166-4.6963-3.3778a272.4984,272.4984,0,0,0,35.4971,1.5243,274.56,274.56,0,0,0,45.7294-4.9571c-3.1588,2.8675-7.6835,4.854-12.0908,6.7857-2.3769,1.042-4.8349,2.1191-7.0351,3.3223-.7246.3964-1.4063.7871-2.0557,1.1591-4.4365,2.54-6.4609,3.7-11.0225.7686a2.1257,2.1257,0,0,0-2.2988,3.5762,12.9333,12.9333,0,0,0,7.0371,2.4091c3.0459,0,5.6084-1.4668,8.3975-3.0644.626-.3594,1.2842-.7354,1.9834-1.1182,2.0361-1.1142,4.3017-2.1074,6.7012-3.1582,6-2.63,12.2041-5.35,15.874-10.45a2.1085,2.1085,0,0,0,.3828-1.4271q2.9943-.6431,5.9863-1.3511a13.0066,13.0066,0,0,0-2.9976,4.703c-7.0414,2.2522-22.5258,11.7182-23.1586,18.8819a2.1276,2.1276,0,0,0,1.9306,2.3056c.0645.0049.127.0078.19.0078a2.1268,2.1268,0,0,0,2.1162-1.9384c.22-2.4947,4.7119-6.4918,9.728-9.818a10.9809,10.9809,0,0,0-.1977,2.024,11.7955,11.7955,0,0,0,23.5761,0,11.1675,11.1675,0,0,0-3.8875-8.4192c5.0346-.2,10.5353-.0792,11.8963.6155.05.0254.12.0615.1973.1011-.0049.0708-.0107.143-.0156.2134-.0449.6289-.1074,1.49-.1074,2.7255,0,4.2764.17,7.1016,2.4433,7.39.4678.0547,2.0449.0791,2.625-2.1787a2.118,2.118,0,0,0-.0019-1.0684l-.6788-2.59a2.1353,2.1353,0,0,0-.1035-.3008c-.0205-.4727-.0322-.9131-.0322-1.252,0-1.082.0557-1.8549.0967-2.4194.1758-2.4316-.3125-3.2969-2.49-4.4077-2.9992-1.5307-12.8281-1.3124-18.8526-.7543a9.8009,9.8009,0,0,1,3.04-2.4581,20.9377,20.9377,0,0,0,2.1221-1.4043,2.167,2.167,0,0,0,1.0613-2.1082q13.9528-3.7486,27.801-8.9162l.0908-.0342.0508-.082c1.8565-2.9981,3.54-4.4243,5.0274-4.25,1.46.1747,2.831,1.9242,4.0855,5.1993a14.81,14.81,0,0,0-1.2877,1.8622c-4.1318,7.2691-3.2832,13.7573-2.4619,20.0322.6182,4.7227,1.2012,9.1827-.1719,14.1338a2.1173,2.1173,0,0,0,.1879,1.5808c-.2729,2.8492-.6041,5.6722-1.0217,8.4557a2.1922,2.1922,0,0,0-.3576,1.5592c.001.01.003.0215.0059.0371-.002.0411-.0029.083-.0029.125a2.1686,2.1686,0,0,0,.03.24q-.9684,5.9357-2.3639,11.6732c-10.7781-3.4717-23.9874-3.3711-40.3635.3267a2.8342,2.8342,0,1,0,1.248,5.5293c15.5113-3.5026,27.8345-3.6211,37.669-.3692a145.3324,145.3324,0,0,1-9.5025,24.55c-6.2163-5.8632-15.3452-7.9338-27.7182-6.32a2.8343,2.8343,0,1,0,.7324,5.6211c11.516-1.4986,19.2808.4244,24.2256,6.018a152.75,152.75,0,0,1-15.6289,23.1745L288.762,371.2612a2.8351,2.8351,0,0,0-3.67,4.3223L302.1065,390.03c-13.0446,14.9336-29.2538,28.0929-48.278,39.4111-.2546.0848-.4638.1632-.6575.2382,45.1078-10.8187,88.6514-11.2046,130.5845-.8548l-.6863-66.54c.0291.37-1.1329-.2375-1.352-.0678-21.3142,16.4971-26.73-4.67-36.8815-19.9251a75.27,75.27,0,0,0,8.2793-11.5588c7.5717,6.7075,27.8362,25.6409,29.7671,29.7545l.5244,1.1172.6319-49.7549v-.9834l-16.6357-9.8465c.1472-1.1615.3484-2.5195.5566-3.922,1.3369-8.9878,2.0419-15.0562-.2256-17.43-2.7129-2.8394-1.9854-5.0908-.9766-8.2075a24.3744,24.3744,0,0,0,.8434-3.1073c4.2985,7.4409,8.7588,15.1193,17.1517,19.7425l.42.2319V251.1348L367.0559,233.43,361.73,210.0752l24.2646,7.436v-39.145l-12.4111-13.2388-.0576-.061-1.0469-.2612,12.2822-7.1323V144.0576l-62.9248,2.5,16.3828,21.42-38.2-23.1572,8.9336,55.86v5.1655l-30.3437-49.35c-.5352-.5879-.91-1.084-1.2412-1.5215a4.6847,4.6847,0,0,0-3.4346-2.2661l-.4365-.0889,8.039,33.3911-75.38.8145,4.6856-33.8389v-5.2226l-36.12,66.2021h-3.0918l9.7021-55.4941-.9951,1.1943c-19.9784,23.9924-42.5973,51.166-54.3518,84.67a10.5764,10.5764,0,0,0-6.2462,3.9769l24.2674-70.377a2.126,2.126,0,0,0-3.19-2.4614l-1.2329.8228c-.043.0288-.085.059-.126.0913L101.9143,205.62l26.1289-33.2295a2.1264,2.1264,0,0,0-1.22-3.3916l-42.4648-9.2314,42.8032-29.2862a2.1256,2.1256,0,0,0,.625-2.8432L100.4446,81.7935a2.1257,2.1257,0,1,0-3.6514,2.1777l26.3189,44.1294-4.1093,2.8116-17.5113-21.0929-.2886-.289H62.8479c-.2383,0-.415.0122-.5171.1645l-.0117.0259c-.0884.0078-.24.0151-.499.0151h-.7319l.541.4932c1.0088.9189,3.1626,2.8223,5.8891,5.2314,9.1014,8.042,26.7923,23.6744,31.5979,29.0582L77.888,159.043a2.1086,2.1086,0,0,0-.48.4623L30.573,109.62l-.084-.09H5.824v17.8774L91.917,211.455l-3.9524,5.0264-2.37,1.8453a2.1262,2.1262,0,0,0,2.2568,3.58l1.6451-.8222a2.14,2.14,0,0,0,.7207-.5879l.7695-.9785,3.99-3.1068a1.3988,1.3988,0,0,0-.0356.2454,1.4179,1.4179,0,0,0,.4028,1.05l22.5164,23.01-6.6551,19.3a2.1259,2.1259,0,1,0,4.02,1.3857l.1784-.5175c.1141-.0511.2179-.1011.2957-.14a1.4185,1.4185,0,0,0,.6753-.7236c2.615-6.2956,5.1855-10.2387,7.7964-11.9557a56.3293,56.3293,0,0,0,2.4084,5.2462C117.82,257.12,114.89,262.5889,114.025,269.06L4.7971,158.0488v39.8726L116.3427,306.1282c1.5946,5.3233,4.0589,10.4592,7.6126,17.3293A62.4112,62.4112,0,0,0,136.92,337.5792c-.0783,5.1306-.3351,18.0417-1.021,27.8756L6.5677,231.32l-.4878-.5054V269.05l.0835.083s94.9085,94.9089,122.5009,122.5018l-.0717-.0038-.1109.0118a180.5091,180.5091,0,0,0-30.452,5.7653L5.1253,304.5044l-.4834-.4844v38.833l.08.0821c2.3263,2.3966,48.7014,50.1636,65.0743,65.7331a128.7693,128.7693,0,0,0-18.64,12.102L6.492,373.895v40.7139L32.3937,438.634a151.7014,151.7014,0,0,0-15.3973,21.4421ZM273.552,450.439a14.7306,14.7306,0,0,0,1.4924,1.5891c-8.4691,1.9419-21.3965,2.8483-29.8821,2.4941l1.5466-4.8008C253.36,448.6526,271.4286,448.3045,273.552,450.439Zm22.8321-149.4522a7.1362,7.1362,0,1,1,7.5361-7.125A7.3477,7.3477,0,0,1,296.3841,300.9868ZM89.8853,165.32l25.9743,15.686-8.3252,10.5875-26.4667-28.19Zm257.2156,135.313a2.1757,2.1757,0,0,1-.9961,1.6738l-.01.0039-.74-.7689c.6263-.7746,1.2022-1.4985,1.7086-2.1637A3.5028,3.5028,0,0,1,347.1009,300.6333Zm3.8682-35.71-.1085-.1446a2.1285,2.1285,0,0,0-1.0849-.8467,4.0332,4.0332,0,0,0-1.9781-.159l6.36-12.5109a32.0333,32.0333,0,0,1,7.069,7.0162c-.4115.0035-.853.0252-1.3424.0722C355.6406,258.76,352.9488,261.8321,350.9691,264.9229ZM212.0958,450.9709a50.3816,50.3816,0,0,1-17.5645-2.2793c6.22-1.9382,11.8394-2.3677,18.2809.1829Zm2.0912-6.12c-8.8928-3.4632-16.5066-2.0412-25.0217,1.2076a2.1183,2.1183,0,0,0-.4175.2185,49.8824,49.8824,0,0,1-14.6792-11.657l.55-.2754.18-.5732c1.9116-6.0885,16.7711-7.0732,44.1758-2.9329Zm-38.72-201.8061.05.0152a5.4268,5.4268,0,0,0,2.0756.4155,6.6481,6.6481,0,0,0,5.6934-3.8,2.1262,2.1262,0,1,0-3.7422-2.0195c-.1108.2055-1.1206,1.9922-2.3979,1.4765a2.1163,2.1163,0,0,0-.9265-.6985c1.93-6.9874,5.7786-14.8638,11.5686-23.6936l78.8605-.8894a2.1213,2.1213,0,0,0,.5447,4.1726h24.0528a2.126,2.126,0,0,0,0-4.2519H273.6839l23.249-.2622q.62.3345,1.2034.6953l-.1731.2266-.0381.03a5.273,5.273,0,0,0-1.8535,2.36c-1.3008,3.5137-1.2422,6.061.1777,7.7866,1.2295,1.4956,3.1289,1.9492,5.2412,1.9492a34.6242,34.6242,0,0,0,5.3516-.5878c.0162-.0027.03-.0095.0466-.0125a28.8035,28.8035,0,0,1,.9368,5.8166l.1607.9427a2.1133,2.1133,0,0,0-1.5494,1.0105,13.0279,13.0279,0,0,0-.7481,1.6494c-1.082,2.6553-1.915,4.0937-2.41,4.2715-.0049-.001-.3867-.0987-1.084-.9663.0029-.0933.0078-.1851.01-.2632.0049-.1338.0078-.2456.0078-.3179a2.1209,2.1209,0,0,0-2.1192-2.12h-.0068a2.1316,2.1316,0,0,0-2.126,2.1182l-.0049.1767a3.7572,3.7572,0,0,0,.4532,2.4448c1.5039,2.1119,3.1279,3.1792,4.8349,3.1792a4.3269,4.3269,0,0,0,.4825-.0283,5.832,5.832,0,0,0,4.1023-3.1205l-.4148,16.2983c-33.4073,18.1372-74.8926,20.4624-126.8189,7.1137-4.9634-5.6952-6.755-12.7242-5.3738-21.203C175.3034,242.9879,175.386,243.0166,175.4671,243.0444Zm126.0474-26.2586a18.58,18.58,0,0,1,3.8252,5.1172c-2.0707.323-5.211.7287-5.8072.0032-.1934-.2348-.3311-1.291.5264-3.6083.0527-.1421.22-.28.4882-.4908a3.517,3.517,0,0,0,.9278-.97ZM241.0677,399.2173c.1767,4.4746-.7442,7.8242-2.8018,10.2148a10.3265,10.3265,0,0,1-1.5677,1.4678l3.9211-11.8162C240.7689,399.129,240.9168,399.1614,241.0677,399.2173Zm-7.4229,1.8349a9.9077,9.9077,0,0,1,2.381-1.6259l-4.6119,13.8979c-.6731.1759-1.3707.3355-2.12.4614Zm-3.7811,16.9436-21.3244,64.2605H206.02l2.013-6.449c.1695-.4082.336-.8213.4963-1.2492l19.2285-56.2773C228.4856,418.2053,229.1836,418.1075,229.8637,417.9958ZM344.9485,271.4263a10.2975,10.2975,0,0,1,3.0733-3.3457,12.3723,12.3723,0,0,1,1.0439,1.5874c-.39,2.5146-.9482,5.0361-1.4883,7.479-1.1719,5.3032-2.3847,10.7851-2.1,16.86a12.3543,12.3543,0,0,1-1.7685,2.7617,64.4825,64.4825,0,0,0-.7032-7.9638C342.2093,282.7148,341.5208,277.4556,344.9485,271.4263ZM342.2941,338.76c-.158-.2006-.3164-.4005-.477-.5971l-1.2336-.8225c-.1051-.0474,2.4613-12.7251,3.825-22.3128,9.9076-4.72,18.3665-13.4781,15.5146-25.6564a2.1262,2.1262,0,0,0-4.1406.9687c2.3262,9.93-4.8334,16.1938-10.7438,19.56.0243-.2526.0476-.5025.0676-.7416.0835-.9966.1126-1.8611.1047-2.6318a4.8663,4.8663,0,0,0,.72.0624,4.7834,4.7834,0,0,0,1.6368-.2891,6.2055,6.2055,0,0,0,3.7314-4.9912,7.4721,7.4721,0,0,0-1.7557-6.1443,3.83,3.83,0,0,0,.1864-1.2542c-.2774-5.55.8291-10.5507,2-15.8457.582-2.6352,1.1855-5.36,1.5986-8.1479a2.7179,2.7179,0,0,0,.0051-.6714c1.8319-3.2108,3.7885-6.3573,6.9588-6.6631a7.2353,7.2353,0,0,1,1.708-.0449h.0009a9.5344,9.5344,0,0,1,.8682,1.793c.124.2949.2588.6137.4082.958.5488,1.2661.1426,2.6728-.5664,4.8628-1.0625,3.2837-2.5166,7.7807,1.9043,12.4008.9785,1.54-.2646,9.9014-.8613,13.919-.2746,1.8473-.5254,3.5367-.6784,4.9229-.1482.26-.2946.5469-.4535.8622-.331.6563-.8007,1.5958-1.3662,2.7276-1.1279,2.2588-2.6347,5.2881-4.1631,8.3652-2.86,5.7588-6.1884,12.4795-6.5839,13.3037A68.6309,68.6309,0,0,1,342.2941,338.76Zm-204.463-71.9387.0427.7862c.7161,13.2017,1.4059,25.9093,2.2532,37.8113a307.0918,307.0918,0,0,1-7.1179-41.8567,2.1278,2.1278,0,0,0-.9331-1.54c-3.2363-2.16-6.09-2.8742-8.5116-2.1495a23.1747,23.1747,0,0,1,5.0628-2.8207c.0476.005.0949.0116.1413.0172A37.7753,37.7753,0,0,0,137.8311,266.8217Zm-10.0994,54.6827c-7.0469-13.624-9.5127-19.73-9.5127-34.7529,0-2.0533-.06-3.9911-.123-5.8786a2.1317,2.1317,0,0,0,.4253.0509,2.1082,2.1082,0,0,0,2.165-2.0859c.2183-11.6694,2.667-14.1973,3.71-14.7427,1.2177-.6367,2.9946.0635,4.497.9473,2.0577,18.6494,4.9677,34.4175,8.9242,48.1611-8.1361-6.4321-11.563-12.6407-11.2254-16.3906.1757-1.9541,1.3808-3.3731,3.684-4.335a2.1263,2.1263,0,0,0-1.64-3.9238c-4.7842,2-6.0557,5.3877-6.2793,7.8779-.6261,6.9559,6.0831,15.92,17.5331,23.5119.6176,1.8737,1.2637,3.6985,1.9262,5.4972q.2184,2.163.4527,4.2685l-1.7069-.5217a2.126,2.126,0,0,0-1.2427,4.0664l3.4869,1.0655q.1294,1.056.2632,2.0983a14.058,14.058,0,0,1-2.6109-1.4853,2.1121,2.1121,0,0,0-.3531-.251C135.0159,331.0035,128.8541,323.6747,127.7317,321.5044Zm15.958,19.454q.4647,3.225.984,6.2784c-.19,1.7268-.3778,3.2529-.5416,3.9492-.2563,1.0625-2.0171,6.1162-3.7314,10.3545.4226-7.7039.6319-16.2336.7283-21.3949A10.8418,10.8418,0,0,0,143.69,340.9584Zm1.1426,20.94c.6366-1.6173,1.2554-3.283,1.79-4.7763a81.5578,81.5578,0,0,0,6.4694,19.03l-4.1563,2.8232-8.3-8.6083C141.7154,369.132,142.9658,366.6414,144.8323,361.8979Z"/><path d="M208.6038,220.9014H228.75a2.126,2.126,0,0,0,0-4.252H208.6038a2.126,2.126,0,1,0,0,4.252Z"/><path d="M294.8772,255.4531v.001c.8809,1.53,3.2774,2.7979,5.0869,3.1387a6.001,6.001,0,0,0,1.1182.11,4.0261,4.0261,0,0,0,2.585-.8486,4.9059,4.9059,0,0,0,2.1953-3.7788,3.7816,3.7816,0,0,0-1.6358-3.0088c-1.53-1.1836-4.7011-2.5669-8.7373,1.4624a2.2754,2.2754,0,0,0-.6133,2.9233Z"/><path d="M225.05,244.1543c-2.1846,2.5456-6.6991,10.1188-6.4328,13.9863a3.5645,3.5645,0,0,0,1.8759,3.0977,15.0631,15.0631,0,0,0,6.7754,1.4824,13.9913,13.9913,0,0,0,6.4658-1.42.4721.4721,0,0,1,.1573-.0459,2.0959,2.0959,0,0,0,.2718.1268,11.3859,11.3859,0,0,0,6.0006,1.8019,11.5528,11.5528,0,0,0,5.667-1.5488c5.9151-3.3062,9.4512-10.8457,7.5664-16.1343-.7588-2.1323-3.6191-6.8979-13.6592-5.1245-3.1621.5581-5.2919,4.3994-5.5244,7.791a7.46,7.46,0,0,0,5.3438,8.0439,2.1258,2.1258,0,1,0,1.3037-4.0468,3.27,3.27,0,0,1-2.4053-3.7066c.1494-2.1909,1.4942-3.8012,2.02-3.894,2.8379-.501,7.7686-.8594,8.916,2.3638,1.1758,3.3022-1.6152,8.7485-5.6357,10.9961-3.6533,2.0439-7.2852,1.0024-10.5068-3.0035-1.6212-2.0162-4.1127-7.5778-4.1265-9.4175.012-.07.015-.14.02-.2109.0053-.0373.004-.0846.0126-.1167,4.3213-9.9219,6.08-11.7026,18.4541-11.8862,1.294-.0493,2.1924,1.0347,3.4053,2.646,1.0439,1.3852,2.123,2.8174,3.9355,2.9624a3.983,3.983,0,0,0,3.11-1.2764,21.6031,21.6031,0,0,1,8.583-5.1186l1.5635-2.4248-2.5108-1.7188-.5136.1025a2.12,2.12,0,0,0-.6553.2481,26.2041,26.2041,0,0,0-9.2822,5.7217c-.2618-.2954-.59-.731-.834-1.0547-1.3174-1.749-3.3311-4.375-6.8643-4.3394-14.1006.2095-17.4228,3.2657-22.29,14.44A3.7853,3.7853,0,0,0,225.05,244.1543Zm5.3093,13.9114a12.5657,12.5657,0,0,1-7.499-.407,28.4559,28.4559,0,0,1,3.116-7.5539,34.16,34.16,0,0,0,3.96,7.4792C230.0742,257.7549,230.22,257.9025,230.36,258.0657Z"/><path d="M262.4368,387.3794c1.3125.0459,2.5117.0889,3.6631.0889,4.2031,0,7.751-.5713,13.6894-3.6045a2.835,2.835,0,0,0-2.58-5.0489c-6.253,3.1954-8.8565,3.1026-14.57,2.8985-1.6377-.0586-3.4931-.125-5.7109-.125-2.4873,0-5.0557-.1026-7.54-.2022-2.29-.0908-4.65-.1855-7.02-.205a2.8366,2.8366,0,0,0-2.7754.7246l-.1026.1015a2.8353,2.8353,0,0,0,2.0049,4.84c2.5508,0,5.1524.1035,7.667.2041,2.54.1015,5.166.207,7.7666.207C259.0442,387.2583,260.8469,387.3228,262.4368,387.3794Z"/><path d="M232.6546,383.0269a31.7453,31.7453,0,0,0-3.5323.2841,37.92,37.92,0,0,1-4.33.3321c-.8916,0-1.84.0341-2.8164.07-5.2061.1875-9.0254.1152-10.68-2.6055a2.835,2.835,0,0,0-4.8438,2.9473c2.8526,4.6875,8.0488,5.3965,12.6631,5.3965,1.0654,0,2.1006-.0381,3.0674-.0733.9053-.0332,1.7832-.0654,2.6094-.0654a42.7614,42.7614,0,0,0,4.9824-.3711,28.5009,28.5009,0,0,1,2.88-.2451,2.835,2.835,0,0,0,0-5.67Z"/><path d="M234.6233,359.9155a2.8346,2.8346,0,0,0-4.5918,3.3242,55.1042,55.1042,0,0,0,4.1787,4.2442c2.8535,2.6846,4.1407,3.8955,5.56,3.8955a3.0058,3.0058,0,0,0,.9189-.1553,2.8941,2.8941,0,0,0,1.9961-2.7344v-.083a2.8354,2.8354,0,0,0,2.6075,2.72c.0722.0058.1435.0078.2148.0078a2.8191,2.8191,0,0,0,2.8193-2.61,4.07,4.07,0,0,1,2.56-2.1582c.6729-.0713,1.1641-.1386,1.5947-.1972a15.6957,15.6957,0,0,1,1.7852-.1719,2.8463,2.8463,0,0,0,1.3779.0019l.4121-.1025a2.835,2.835,0,0,0-.6845-5.5859,22.2753,22.2753,0,0,0-3.6592.2412c-.3858.0527-.8262.1133-1.43.1777-3.6592.3906-7.3555,3.9619-7.6065,7.3467-.0039.0527.0052.103.0042.1553a2.8346,2.8346,0,0,0-2.2-2.711C238.8518,364.1294,235.2678,360.6948,234.6233,359.9155Z"/><path d="M276.4251,311.2485c2.6455-1.081,6.2383-.3242,10.3965.5518a51.8919,51.8919,0,0,0,10.7783,1.456c6.5254,0,9.1933-.9619,14.41-4.05a2.1257,2.1257,0,0,0-2.166-3.6582c-4.665,2.7608-6.5928,3.4561-12.2441,3.4561a47.8541,47.8541,0,0,1-9.9014-1.3643c-4.6435-.9785-9.0264-1.9043-12.8828-.3271a2.1259,2.1259,0,1,0,1.6094,3.9355Z"/><path d="M300.8548,292.7026a2.1116,2.1116,0,0,0-1.6549.05,2.8735,2.8735,0,0,0,.3482-1.3581c0-1.832-1.706-3.268-3.8838-3.268s-3.8838,1.436-3.8838,3.268,1.7061,3.2666,3.8838,3.2666a4.3442,4.3442,0,0,0,2.4243-.7153c-.28.7071-.7477,1.3872-2.8354,1.3872a2.126,2.126,0,1,0,0,4.2519c3.4551,0,5.7471-1.39,6.8125-4.1308A2.1254,2.1254,0,0,0,300.8548,292.7026Z"/><path d="M228.8147,307.6108a42.0584,42.0584,0,0,0,2.8262,4.1846c.5986,1.5781.6367,12.8233-.375,15.792a2.1259,2.1259,0,1,0,4.0088,1.417c.5312-1.501,2.3828-17.1934-.4629-20.041-.3506-.39-1.6377-2.418-2.4063-3.6309-2.32-3.6562-2.5625-4.0381-3.8632-4.0381a2.1259,2.1259,0,0,0-1.43,3.6993C227.4221,305.4165,228.219,306.6724,228.8147,307.6108Z"/><path d="M207.62,312.5757a2.1263,2.1263,0,0,0-1.7871-2.418,35.6071,35.6071,0,0,1-4.45-.9512c-3.1148-.8408-4.4058-1.0107-10.8355.9883-4.2876,1.336-11.63.1377-12.6684-1.2578a6.6018,6.6018,0,0,0-2.7066-1.5635l-.3388-.1172h-.5645a2.1263,2.1263,0,0,0-.2373,4.2393c.2271.0967.522.23.7207.3281,2.1421,2.3955,6.772,3.1367,10.7915,3.1367a24.0477,24.0477,0,0,0,6.2666-.705c5.5552-1.7285,6.1719-1.5616,8.4644-.9434a40.087,40.087,0,0,0,4.9272,1.0508A2.1339,2.1339,0,0,0,207.62,312.5757Z"/><path d="M167.25,288.5259c7.58-1.9995,9.415-2.124,9.8139-2.1,1.3936.0549,2.7375.1461,4.04.2669a12.4341,12.4341,0,0,0-2.2181,2.3678,12.9282,12.9282,0,0,0-2.2441,9.4161,12.6478,12.6478,0,0,0,12.3071,10.99,11.8949,11.8949,0,0,0,1.7168-.125,12.5625,12.5625,0,0,0,10.352-14.4072,13.2069,13.2069,0,0,0-.4-1.7809,20.1031,20.1031,0,0,1,2.1209,1.8951c.3946.4072.794.8018,1.1915,1.1934,2.1445,2.1152,3.84,3.7851,4.4072,7.1367a2.6116,2.6116,0,0,0,2.6523,2.17c.0811,0,.1641-.0029.2471-.01l4.5918-.3653-3.4629-3.4619c-.0117-.0127-.0244-.0254-.0371-.0371-.9678-4.0781-3.32-6.3965-5.4141-8.4609-.374-.3682-.75-.7393-1.12-1.1221-5.8657-6.063-15.4756-9.3994-28.563-9.9151-1.0454-.0419-3.46.1856-12.4726,2.6119l-.4366.1167.001.0024a2.2672,2.2672,0,0,0-1.2685.8076c-.9395,1.2349-.52,2.3882,1.499,7.93a54.63,54.63,0,0,1,1.834,5.5127,2.1261,2.1261,0,0,0,4.2514-.0557c0-1.0664-.6049-2.834-2.09-6.9121C168.1453,291.0835,167.6145,289.6265,167.25,288.5259Zm22.8047,16.6094a8.3084,8.3084,0,0,1-9.2046-7.27,8.6968,8.6968,0,0,1,1.4985-6.3369,7.8008,7.8008,0,0,1,5.2568-3.251c.1573-.0229.3119-.0209.4681-.0339a4.5248,4.5248,0,0,0-3.9788,4.283c0,2.4589,2.2256,4.3847,5.0664,4.3847s5.0659-1.9258,5.0659-4.3847a4.1527,4.1527,0,0,0-1.9043-3.4251,8.65,8.65,0,0,1,4.4873,6.4446A8.31,8.31,0,0,1,190.0545,305.1353Z"/><path d="M190.7156,296.91a2.1074,2.1074,0,0,0-.9238.2109c-.6265.0586-2.065.0615-4.2881.0088-.3545-.0088-.6211-.0147-.75-.0147a2.126,2.126,0,0,0,0,4.252c.1113,0,.3418.0059.6484.0137,1.0557.0244,1.9292.0381,2.6577.0381,2.9283,0,3.5093-.2217,4.12-.8184a2.2471,2.2471,0,0,0,.6621-1.5645A2.1261,2.1261,0,0,0,190.7156,296.91Z"/><path d="M301.3137,435.0649a14.2149,14.2149,0,0,1,7.4766-.8535,3.3145,3.3145,0,0,0,2.1758-.2207,2.1261,2.1261,0,0,0-1.3086-3.9629c-.11-.01-.251-.0263-.416-.0439a18.3171,18.3171,0,0,0-9.6895,1.2119,5.8225,5.8225,0,0,0-3.1494,2.9619A3.8488,3.8488,0,0,1,295.23,435.62a2.1262,2.1262,0,0,0,2.664,3.3145,7.95,7.95,0,0,0,2.2686-2.792A1.7854,1.7854,0,0,1,301.3137,435.0649Z"/><path d="M305.8137,462.8394a2.1182,2.1182,0,0,0,1.47-.59,51.6387,51.6387,0,0,1,5.2334-4.1582,2.1249,2.1249,0,0,0,2.4121-2.1064,2.3023,2.3023,0,0,0-1.3985-2.1573c-1.6523-.7031-4.7412,1.0967-9.1865,5.35a2.126,2.126,0,0,0,1.47,3.6622Z"/><path d="M286.4778,482.9175a2.1256,2.1256,0,1,0,3.7227,2.0527c.2724-.4931,5.2939-9.5156,5.705-10.25,3.2139-5.0273,3.0479-9.7236,2.8711-14.6943-.0439-1.2305-.0888-2.503-.0888-3.836a2.126,2.126,0,0,0-4.252,0c0,1.4082.0469,2.7188.0918,3.9873.1719,4.8584.2969,8.3682-2.24,12.3077C292.2,472.6245,286.5315,482.82,286.4778,482.9175Z"/><path d="M1.1692,490.3413v54.0166H388.638V490.3413Zm112.6528,28v-1.82a24.0794,24.0794,0,0,1,24.0518-24.0518H244.3714a24.08,24.08,0,0,1,24.0517,24.0518v1.82a24.08,24.08,0,0,1-24.0517,24.0518H137.8738A24.0794,24.0794,0,0,1,113.822,518.3413Z"/><path d="M140.9749,542.3413H241.6614a24.0983,24.0983,0,0,0,24.07-24.0713v-1.72a24.0983,24.0983,0,0,0-24.07-24.0713H140.9749a24.0983,24.0983,0,0,0-24.07,24.0713v1.72A24.0983,24.0983,0,0,0,140.9749,542.3413ZM119.0305,516.55a21.969,21.969,0,0,1,21.9444-21.9443H241.6614A21.9684,21.9684,0,0,1,263.6048,516.55v1.72a21.9685,21.9685,0,0,1-21.9434,21.9444H140.9749A21.969,21.969,0,0,1,119.0305,518.27Z"/><path d="M131.7644,527.6011a3.5464,3.5464,0,1,0,3.5474,3.5468A3.5509,3.5509,0,0,0,131.7644,527.6011Z"/><circle cx="128.9636" cy="517.1929" r="3.5471"/><path d="M131.9905,507.7183a3.5469,3.5469,0,1,0-3.5474-3.5469A3.55,3.55,0,0,0,131.9905,507.7183Z"/><path d="M250.6331,527.6011a3.5464,3.5464,0,1,0,3.5469,3.5468A3.55,3.55,0,0,0,250.6331,527.6011Z"/><path d="M249.888,517.1929a3.5464,3.5464,0,1,0,3.5468-3.5469A3.55,3.55,0,0,0,249.888,517.1929Z"/><circle cx="250.4075" cy="504.1714" r="3.5469"/><path d="M172.364,534.79a14.11,14.11,0,0,0,1.7022-.1114c.3193-.041.3193-.041,2.3848-.9541,1.408-.6227,3.31-1.4635,4.4431-1.9549a27.4358,27.4358,0,0,0,9.6418,2.1971c9.2891,0,15.895-3.7812,18.1235-10.376A15.6028,15.6028,0,0,0,203.5,506.62c-4.7984-3.6631-10.9346-3.4834-16.8335.4922a10.764,10.764,0,0,0-3.8125,12.7344c.728,1.6553,3.8237,6.8828,13.11,4.6494,3.3579-.8086,4.4917-4.2822,4.1255-7.3662-.2329-1.9629-.9883-3.3848-2.07-4.0147a2.1264,2.1264,0,0,0-3.3184,2.6358l.2056.3086a2.1314,2.1314,0,0,0,.77.6982,4.73,4.73,0,0,1-.0039,2.8867c-.24.6055-.542.6778-.7041.7168-4.2227,1.0166-7.1445.2266-8.2236-2.2265a6.4378,6.4378,0,0,1,2.2963-7.4971c4.355-2.9336,8.5743-3.1592,11.878-.6377a11.3932,11.3932,0,0,1,3.71,12.23c-1.6318,4.8272-6.6372,7.4854-14.0952,7.4854-2.9243,0-8.875-1.5489-10.1431-3.3135-3.6123-5.0254-4.3364-10.6377-1.9863-15.3994,2.6978-5.4659,8.9243-8.87,16.6558-9.1065,3.164-.1084,7.3022,1.4238,10.0444,2.4307,4.2617,1.5722,10.8-4.06,12.291-6.0606a2.1256,2.1256,0,1,0-3.4082-2.541c-1.5947,2.14-6.2392,5.0313-7.417,4.61-3.875-1.4229-7.9741-2.7823-11.64-2.69-9.33.2852-16.9331,4.5752-20.3384,11.4746a17.36,17.36,0,0,0-1.7135,9.52c-2.58,2.2892-7.0254,8.5937-6.1107,12.55C167.0965,532.604,168.2649,534.79,172.364,534.79Zm1.686-11.2548a23.2245,23.2245,0,0,0,2.8786,5.33c-.7558.3332-1.5316.676-2.1969.97-.6435.2842-1.1807.5225-1.4858.6563-1.8487.1875-2.3125-.1992-2.314-.1992C170.5437,529.613,172.1659,526.0223,174.05,523.5348Z"/><path d="M272.21,119.2991c-.1772-.02-.3583-.0422-.5518-.0616-.2175-.0219-.4443-.0446-.6816-.0708-.1113-.0122-.2332-.03-.3488-.0439-.1863-.0228-.3726-.0456-.57-.0753-.1324-.02-.2746-.0486-.4118-.0726-.1916-.0336-.3828-.0668-.5835-.11-.15-.0323-.3078-.0762-.4624-.1149-.2-.05-.4007-.1-.6093-.1629-.1657-.05-.339-.1134-.51-.1721-.21-.0721-.42-.1451-.6373-.2323-.18-.0723-.3666-.16-.5516-.2438-.2884-.1306-.575-.2564-.8751-.4179a2.4578,2.4578,0,0,1,.6248.3765c.0508.0394.1.0712.1515.1156.0888.0757.1818.1674.2741.2573.0471.0457.092.0836.14.1328.13.134.2646.2831.4014.4421.0119.0139.0231.0247.0351.0388.15.1758.3035.3665.46.57.0442.0572.0905.1226.1352.1819.114.1513.228.3027.3454.4671.0588.0824.12.1734.18.259.1061.1521.2118.3026.32.4641.0651.097.1323.2015.1983.3018.1059.1609.2114.32.3194.4891.07.1087.1408.2239.2112.3358.1068.17.2133.3385.3219.5152.0742.1208.15.2471.2249.3709.1071.1768.214.3526.3226.5351.0775.13.1562.2649.2344.3979.1078.1832.2155.366.3246.5543.0831.1432.1671.29.2508.4361.1063.1852.2125.37.32.5592.0847.1492.17.3011.2554.4525.11.1954.22.3907.331.59.0807.1444.1618.2907.2429.4368.1186.2137.2373.4277.3568.6445.0753.1366.1509.2743.2264.412q.1911.348.383.699.1029.1885.2063.3783.2089.3834.4186.7694l.1734.3194c.4255.7845.8529,1.5744,1.28,2.3621q.1148.2116.2294.4225.1814.3336.3623.6655.1308.24.2613.4784.1682.3076.3359.6129c.0939.1709.1875.34.2811.51q.1591.2882.3177.5738c.0944.17.1882.3376.2822.5055q.1576.282.3145.5606c.0936.1658.1865.3291.2795.4925.1034.1819.2066.3635.3094.5422.0942.1638.1876.3244.2811.4854.099.17.198.3409.2961.5077.0958.1629.1906.3214.2855.4807s.1917.322.2865.4788.1886.3082.2825.4609c.0927.1507.1858.3028.2775.4492.0949.1514.188.2961.2817.4426.0886.1386.1778.2794.2654.4135.0952.1457.1886.2835.2824.4235.0839.1251.1685.2534.2512.3738.0957.1392.1892.2688.2834.4013.0782.11.1575.2247.2346.33.0981.134.1935.2566.29.3823.07.092.1423.19.2115.2772.108.1363.2127.259.3179.3837.0544.0644.11.1358.1641.197.1576.18.3121.3466.4627.4973l-3.7-13.3626-.8222-.6167,9.251-.4113c-1.6189-8.7314,2.0191-10.6747,6.99-10.8956L272.9467,109.374c-1.85-.4625-2.7209-.9332-4.5228-1.2334l3.0838,8.6342c.6671,1.0007,1.0514,1.68,1.6447,2.6728-.1985-.0468-.4144-.0829-.6449-.1142C272.4144,119.3207,272.3082,119.31,272.21,119.2991Z"/><path d="M324.9866,124.6982a.2469.2469,0,0,0,.083.0108,32.5773,32.5773,0,0,0,5.3184-1.7852c1.1191-.7339,16.3877-3.477,17.8437-3.519a8.9157,8.9157,0,0,0,1.0742-.1058c3.6266,3.9119,29.4289,15.0756,31.5791,15.8a2.1263,2.1263,0,0,0,1.3575-4.03c-5.0785-1.7093-23.5608-10.4674-28.5641-13.61,3.8009-2.696,6.5743-7.68,8.773-11.6466.3809-.686.7442-1.3418,1.0938-1.95l.18-.313-.3467-.1a3.46,3.46,0,0,1-1.9854-1.0595c-.539-.61-.7861-.89-6.0957-.5787-4.8271.2833-6.6728,3.0528-8.3007,5.4961-1.1739,1.7613-2.2823,3.4244-4.3594,4.0611-3.7969,1.1645-18.1953,11.3169-17.834,13.1191l.0322.1577Z"/><path d="M0,.1081V14.4468C0,17.9429.4974,19.611,2.831,21.76c2.3335,2.1172,6.0827,2.5342,8.1486,2.5342a11.7364,11.7364,0,0,0,7.919-2.5662c1.7982-1.54,2.831-3.3039,2.831-7.2814V.1081h-7.23V14.4468c0,1.8925,0,4.5227-3.5963,4.5227-3.558,0-3.6729-2.919-3.6729-4.5227V.1081Z"/><path class="cls-1" d="M335.8255,70.278c0-9.51,6.7183-19.7514,19.1148-19.7514,12.87,0,19.02,11.2472,19.02,20.0255,0,8.6871-6.15,19.843-18.8309,19.843-12.0178,0-19.304-9.693-19.304-20.1171M320.6849,56.8362a37.0856,37.0856,0,0,0-2.7441,14.4476c0,17.3737,14.7621,34.29,36.81,34.29,21.7644,0,37.0941-16.2766,37.0941-35.1135S376.421,35.3473,354.8459,35.3473C335.2577,35.3473,324.3755,48.0577,320.6849,56.8362ZM283.5907,104.294h17.8847V51.8068h13.7211V36.6274H269.775V51.8068h13.8157ZM208.9293,36.6274V77.5017c0,9.9671,1.23,14.722,7.0025,20.8485,5.7722,6.0352,15.0456,7.224,20.1558,7.224,8.7055,0,15.0456-2.8347,19.588-7.3154,4.4472-4.3892,7.0022-9.4183,7.0022-20.7571V36.6274H244.7931V77.5017c0,5.3951,0,12.8934-8.895,12.8934-8.8,0-9.0841-8.3212-9.0841-12.8934V36.6274ZM163.5077,51.8068h6.5294c6.9078,0,11.5446,3.0175,11.5446,9.144,0,3.292-1.23,9.6929-11.7339,9.6929h-6.34ZM146.38,104.294h17.1275V82.44h.1891l16.1814,21.8544h20.44l-19.02-23.0432c13.248-2.1033,17.4115-13.5332,17.4115-21.3058,0-6.9494-2.8389-14.082-8.6111-18.471-4.5421-3.3834-9.2736-4.8466-21.575-4.8466H146.38ZM104.1758,57.659h.284l7.1918,23.1345H96.9843ZM116.3829,94.51l3.4068,9.7843h19.3987L111.3676,36.6274H97.2682L69.1638,104.294H88.3732l3.69-9.7843ZM2.83,104.294H19.9572L19.484,63.237l.1893-.0916,26.685,41.1486h15.519V36.6274H44.75l.7569,42.3375-.189.1826-27.0637-42.52H2.83Z"/><path class="cls-2" d="M335.8255,70.278c0-9.51,6.7183-19.7514,19.1148-19.7514,12.87,0,19.02,11.2472,19.02,20.0255,0,8.6871-6.15,19.843-18.8309,19.843-12.0178,0-19.304-9.693-19.304-20.1171M320.6849,56.8362a37.0856,37.0856,0,0,0-2.7441,14.4476c0,17.3737,14.7621,34.29,36.81,34.29,21.7644,0,37.0941-16.2766,37.0941-35.1135S376.421,35.3473,354.8459,35.3473C335.2577,35.3473,324.3755,48.0577,320.6849,56.8362ZM283.5907,104.294h17.8847V51.8068h13.7211V36.6274H269.775V51.8068h13.8157ZM208.9293,36.6274V77.5017c0,9.9671,1.23,14.722,7.0025,20.8485,5.7722,6.0352,15.0456,7.224,20.1558,7.224,8.7055,0,15.0456-2.8347,19.588-7.3154,4.4472-4.3892,7.0022-9.4183,7.0022-20.7571V36.6274H244.7931V77.5017c0,5.3951,0,12.8934-8.895,12.8934-8.8,0-9.0841-8.3212-9.0841-12.8934V36.6274ZM163.5077,51.8068h6.5294c6.9078,0,11.5446,3.0175,11.5446,9.144,0,3.292-1.23,9.6929-11.7339,9.6929h-6.34ZM146.38,104.294h17.1275V82.44h.1891l16.1814,21.8544h20.44l-19.02-23.0432c13.248-2.1033,17.4115-13.5332,17.4115-21.3058,0-6.9494-2.8389-14.082-8.6111-18.471-4.5421-3.3834-9.2736-4.8466-21.575-4.8466H146.38ZM104.1758,57.659h.284l7.1918,23.1345H96.9843ZM116.3829,94.51l3.4068,9.7843h19.3987L111.3676,36.6274H97.2682L69.1638,104.294H88.3732l3.69-9.7843ZM2.83,104.294H19.9572L19.484,63.237l.1893-.0916,26.685,41.1486h15.519V36.6274H44.75l.7569,42.3375-.189.1826-27.0637-42.52H2.83Z"/><polygon points="59.896 23.845 77.763 23.845 77.763 18.52 68.734 18.52 77.763 5.016 77.763 0.108 59.896 0.108 59.896 5.433 69.652 5.433 59.896 19.868 59.896 23.845"/><path d="M120.0456.1081V14.4468c0,3.4961.4974,5.1642,2.831,7.3134,2.3336,2.1172,6.0827,2.5342,8.1487,2.5342a11.7364,11.7364,0,0,0,7.919-2.5662c1.7981-1.54,2.831-3.3039,2.831-7.2814V.1081h-7.23V14.4468c0,1.8925,0,4.5227-3.5963,4.5227-3.558,0-3.6729-2.919-3.6729-4.5227V.1081Z"/><polygon points="184.897 23.845 190.714 23.845 190.514 6.042 190.581 6.01 195.862 23.845 200.041 23.845 205.323 6.01 205.39 6.042 205.189 23.845 211.006 23.845 211.006 0.108 202.849 0.108 198.002 15.714 197.935 15.714 193.021 0.108 184.897 0.108 184.897 23.845"/><path class="cls-1" d="M266.5559,7.4859h.1149l2.9074,8.1156h-5.93Zm4.9352,12.9272,1.3773,3.4321h7.8424L269.4633.1081h-5.7l-11.362,23.7371h7.7659l1.4921-3.4321Z"/><path d="M280.8821,23.9531h-8.0869l-1.377-3.4321h-9.6875l-1.4922,3.4321H252.23l.0742-.1543L263.6946,0h5.8369l.0293.0615Zm-7.94-.2158H280.54L269.3948.2158h-5.5635L252.5735,23.7373h7.5225l1.4922-3.4321h9.9765Zm-3.21-8.0278h-6.2363L266.48,7.3779h.2675l.0254.0713Zm-5.93-.2158h5.6231L266.6135,7.645Z"/><polygon points="320.419 23.845 327.65 23.845 327.65 13.581 327.726 13.581 335.454 23.845 343.909 23.845 333.924 11.945 343.297 0.108 335.722 0.108 327.726 10.79 327.65 10.79 327.65 0.108 320.419 0.108 320.419 23.845"/><rect x="382.824" y="0.1081" width="7.2306" height="23.7371"/></g></g></svg>