<?xml version="1.0" encoding="UTF-8" standalone="no"?>
<!-- Generator: Adobe Illustrator 16.0.0, SVG Export Plug-In . SVG Version: 6.00 Build 0)  -->

<svg
   version="1.1"
   id="Capa_1"
   x="0px"
   y="0px"
   width="45.973px"
   height="45.972px"
   viewBox="0 0 45.973 45.972"
   style="enable-background:new 0 0 45.973 45.972;"
   xml:space="preserve"
   sodipodi:docname="home.svg"
   inkscape:version="1.2.1 (9c6d41e410, 2022-07-14)"
   xmlns:inkscape="http://www.inkscape.org/namespaces/inkscape"
   xmlns:sodipodi="http://sodipodi.sourceforge.net/DTD/sodipodi-0.dtd"
   xmlns="http://www.w3.org/2000/svg"
   xmlns:svg="http://www.w3.org/2000/svg"><defs
   id="defs213" /><sodipodi:namedview
   id="namedview211"
   pagecolor="#505050"
   bordercolor="#ffffff"
   borderopacity="1"
   inkscape:showpageshadow="0"
   inkscape:pageopacity="0"
   inkscape:pagecheckerboard="1"
   inkscape:deskcolor="#505050"
   showgrid="false"
   inkscape:zoom="17.010354"
   inkscape:cx="23.015394"
   inkscape:cy="22.986"
   inkscape:window-width="1920"
   inkscape:window-height="1011"
   inkscape:window-x="0"
   inkscape:window-y="0"
   inkscape:window-maximized="1"
   inkscape:current-layer="Capa_1" />
<g
   id="g178"
   style="fill:#f2f2f2;fill-opacity:1">
	<g
   id="g176"
   style="fill:#f2f2f2;fill-opacity:1">
		<path
   d="M44.752,20.914L25.935,2.094c-0.781-0.781-1.842-1.22-2.946-1.22c-1.105,0-2.166,0.439-2.947,1.22L1.221,20.914    c-1.191,1.191-1.548,2.968-0.903,4.525c0.646,1.557,2.165,2.557,3.85,2.557h2.404v13.461c0,2.013,1.607,3.642,3.621,3.642h3.203    V32.93c0-0.927,0.766-1.651,1.692-1.651h6.223c0.926,0,1.673,0.725,1.673,1.651v12.168h12.799c2.013,0,3.612-1.629,3.612-3.642    V27.996h2.411c1.685,0,3.204-1,3.85-2.557C46.3,23.882,45.944,22.106,44.752,20.914z"
   id="path174"
   style="fill:#f2f2f2;fill-opacity:1" />
	</g>
</g>
<g
   id="g180">
</g>
<g
   id="g182">
</g>
<g
   id="g184">
</g>
<g
   id="g186">
</g>
<g
   id="g188">
</g>
<g
   id="g190">
</g>
<g
   id="g192">
</g>
<g
   id="g194">
</g>
<g
   id="g196">
</g>
<g
   id="g198">
</g>
<g
   id="g200">
</g>
<g
   id="g202">
</g>
<g
   id="g204">
</g>
<g
   id="g206">
</g>
<g
   id="g208">
</g>
</svg>
