<?xml version="1.0" encoding="UTF-8" standalone="no"?>
<svg
   width="512px"
   height="512px"
   viewBox="0 0 512 512"
   version="1.1"
   id="svg59"
   sodipodi:docname="pencil-brush.svg"
   inkscape:version="1.2.1 (9c6d41e410, 2022-07-14)"
   xmlns:inkscape="http://www.inkscape.org/namespaces/inkscape"
   xmlns:sodipodi="http://sodipodi.sourceforge.net/DTD/sodipodi-0.dtd"
   xmlns="http://www.w3.org/2000/svg"
   xmlns:svg="http://www.w3.org/2000/svg">
  <defs
     id="defs63" />
  <sodipodi:namedview
     id="namedview61"
     pagecolor="#505050"
     bordercolor="#ffffff"
     borderopacity="1"
     inkscape:showpageshadow="0"
     inkscape:pageopacity="0"
     inkscape:pagecheckerboard="1"
     inkscape:deskcolor="#505050"
     showgrid="false"
     inkscape:zoom="1.4142136"
     inkscape:cx="390.6765"
     inkscape:cy="163.34167"
     inkscape:window-width="1920"
     inkscape:window-height="1011"
     inkscape:window-x="0"
     inkscape:window-y="0"
     inkscape:window-maximized="1"
     inkscape:current-layer="svg59" />
  <path
     fill="#000"
     d="M 26.71998,0.01184012 A 26.948605,26.948278 0 0 0 25.357155,0.02542288 C 20.050744,0.20313123 16.399189,1.9881376 13.910112,4.4771859 10.591339,7.7959169 8.5222015,13.180365 9.8488042,21.800917 11.177671,30.421468 16.281471,41.896671 27.135393,54.559236 103.98555,144.21704 177.60635,230.63762 235.07136,294.4881 c 13.89199,15.43459 26.81844,29.51883 38.62656,42.03198 13.69049,-36.10987 39.13026,-61.28559 71.19964,-73.25091 C 332.6446,251.72492 318.93598,239.14498 303.92568,225.63575 240.07669,168.17145 153.6528,94.549266 63.995034,17.700042 51.333446,6.8451208 39.856972,1.7425153 31.236316,0.41366464 A 33.453714,33.453307 0 0 0 26.71998,0.01184012 Z M 451.31105,1.1924119 c -0.3475,-0.0034 -0.67915,0.00453 -0.99042,0.026034 -2.5038,0.1663892 -3.7806,0.7402626 -5.17964,2.1404231 L 413.9228,34.576673 476.35464,97.00549 507.57056,65.787686 c 1.40131,-1.399029 1.97519,-2.673549 2.13932,-5.177312 0.16979,-2.501499 -0.41881,-6.150745 -2.04198,-10.372731 C 504.41932,41.793668 497.16714,31.372264 488.36311,22.568345 479.55908,13.764426 469.13756,6.5123422 460.69349,3.263789 456.99891,1.8432544 453.7458,1.2150497 451.31331,1.1924118 Z m -51.79412,47.7888211 -11.20595,11.206944 11.20595,11.203546 14.40587,14.407956 11.20594,11.203547 14.40814,14.407964 11.20369,11.20581 11.20593,-11.20581 -62.42957,-62.428825 z m -25.61181,25.612635 -98.91682,98.916752 11.84775,10.5629 98.27502,-98.273841 z m 25.61181,25.613772 -97.44873,97.44529 11.85001,10.56175 96.80467,-96.80349 -11.20595,-11.20469 z m 25.61408,25.6081 -95.98063,95.97947 11.85001,10.5629 95.33657,-95.33541 -11.20369,-11.20582 h -0.002 z M 183.06331,265.43562 47.350241,401.14931 58.553925,412.35285 193.63879,277.26964 Z m 178.45754,13.74919 c -34.47923,8.63301 -60.2631,33.03337 -71.99877,73.82027 6.39758,6.54804 12.40124,12.5471 17.86159,17.77875 8.57991,8.22212 15.95546,14.72263 21.74407,19.19362 2.01141,-19.49697 11.37008,-37.42287 24.50027,-50.58574 11.99942,-12.02983 27.72736,-20.38099 44.28613,-21.61024 -4.3805,-5.47386 -10.34456,-12.16792 -17.69068,-19.83427 -5.47619,-5.71271 -11.79002,-12.02419 -18.70261,-18.76239 z M 207.2376,292.48238 72.959792,426.75629 84.165739,437.96436 217.81646,304.3164 Z m 24.17881,27.04563 -132.84254,132.84092 11.20142,11.20581 132.21886,-132.21273 z m 170.11873,18.45789 c -11.76851,0.15506 -23.68983,5.97642 -33.48428,15.79566 -13.05889,13.09042 -21.13736,32.65645 -18.41285,51.72897 6.03764,42.26741 26.88297,74.49034 55.98446,91.95103 25.72615,15.43458 58.23923,19.63847 94.67667,7.90405 -27.4172,-4.53891 -52.60568,-34.75499 -54.55484,-57.3296 12.03223,14.50417 27.09802,27.78475 43.49492,35.93783 -11.18444,-25.55604 -10.41475,-51.44826 -12.55066,-72.80607 -1.53034,-15.30556 -4.40427,-28.27714 -12.87779,-39.79989 -8.47351,-11.52273 -23.11708,-22.41161 -50.64183,-31.5868 a 35.159508,35.15908 0 0 0 -11.6338,-1.79518 z m -364.872429,81.28852 -0.0034,0.002 0.0022,0.002 0.0022,-0.004 z m -0.0012,0.004 -13.7154,34.29658 34.401125,34.4041 34.302649,-13.71863 -7.48195,-7.48412 L 69.756476,452.37119 58.552793,441.16764 44.143529,426.76082 Z M 14.708111,474.15913 0.00228596,510.91871 36.764584,496.21306 14.708111,474.15799 Z"
     id="path57"
     style="fill:#ffffff;fill-opacity:1;stroke-width:1.1319" />
</svg>
